<svg xmlns="http://www.w3.org/2000/svg" xmlns:xlink="http://www.w3.org/1999/xlink" width="500" zoomAndPan="magnify" viewBox="0 0 375 374.999991" height="500" preserveAspectRatio="xMidYMid meet" version="1.0"><defs><clipPath id="003e38872a"><path d="M 158 100 L 207.199219 100 L 207.199219 187.207031 L 158 187.207031 Z M 158 100 " clip-rule="nonzero"/></clipPath><clipPath id="867021085c"><path d="M 118.980469 98.988281 L 168 98.988281 L 168 186 L 118.980469 186 Z M 118.980469 98.988281 " clip-rule="nonzero"/></clipPath><clipPath id="d331dacbbc"><path d="M 207.488281 115.8125 L 247 115.8125 L 247 178.8125 L 207.488281 178.8125 Z M 207.488281 115.8125 " clip-rule="nonzero"/></clipPath><clipPath id="80c74bc9e0"><path d="M 246.914062 121.589844 L 288.914062 121.589844 L 288.914062 173.339844 L 246.914062 173.339844 Z M 246.914062 121.589844 " clip-rule="nonzero"/></clipPath></defs><g clip-path="url(#003e38872a)"><path fill="#4b7be5" d="M 183.726562 113.632812 C 193 120.148438 199.074219 130.929688 199.074219 143.097656 C 199.074219 162.941406 182.933594 179.085938 163.089844 179.085938 C 161.667969 179.085938 160.265625 179 158.886719 178.839844 L 158.886719 187.292969 C 160.277344 187.421875 161.679688 187.488281 163.089844 187.488281 C 169.082031 187.488281 174.894531 186.316406 180.371094 184 C 185.65625 181.761719 190.402344 178.5625 194.476562 174.488281 C 198.554688 170.414062 201.753906 165.664062 203.988281 160.378906 C 206.304688 154.902344 207.480469 149.089844 207.480469 143.097656 C 207.480469 137.109375 206.304688 131.292969 203.988281 125.820312 C 201.753906 120.53125 198.554688 115.785156 194.476562 111.710938 C 190.402344 107.636719 185.65625 104.433594 180.371094 102.199219 C 178.714844 101.5 177.03125 100.90625 175.320312 100.414062 L 175.320312 146.003906 L 183.726562 146.003906 L 183.726562 113.632812 " fill-opacity="1" fill-rule="nonzero"/></g><path fill="#a85cf9" d="M 167.292969 119.90625 L 158.886719 119.90625 L 158.886719 166.292969 L 167.292969 166.292969 L 167.292969 119.90625 " fill-opacity="1" fill-rule="nonzero"/><g clip-path="url(#867021085c)"><path fill="#6fdfdf" d="M 122.1875 160.378906 C 124.425781 165.664062 127.625 170.414062 131.699219 174.488281 C 135.777344 178.5625 140.523438 181.761719 145.808594 184 C 147.460938 184.699219 149.144531 185.292969 150.855469 185.78125 L 150.855469 140.191406 L 142.453125 140.191406 L 142.453125 172.5625 C 133.175781 166.046875 127.101562 155.269531 127.101562 143.097656 C 127.101562 123.257812 143.246094 107.113281 163.089844 107.113281 C 164.511719 107.113281 165.914062 107.195312 167.292969 107.355469 L 167.292969 98.902344 C 165.902344 98.773438 164.5 98.707031 163.089844 98.707031 C 157.097656 98.707031 151.285156 99.882812 145.808594 102.199219 C 140.523438 104.433594 135.777344 107.636719 131.699219 111.710938 C 127.625 115.785156 124.425781 120.53125 122.1875 125.820312 C 119.875 131.292969 118.699219 137.109375 118.699219 143.097656 C 118.699219 149.089844 119.875 154.902344 122.1875 160.378906 " fill-opacity="1" fill-rule="nonzero"/></g><g clip-path="url(#d331dacbbc)"><path fill="#000000" d="M 219.769531 161.871094 C 221.214844 163.394531 223.003906 164.363281 225.148438 164.777344 L 225.148438 150.3125 C 224.914062 150.222656 224.601562 150.117188 224.207031 150 C 223.808594 149.886719 223.378906 149.78125 222.914062 149.691406 C 221.191406 149.230469 219.488281 148.683594 217.8125 148.0625 C 216.136719 147.441406 214.632812 146.609375 213.304688 145.570312 C 211.976562 144.53125 210.917969 143.242188 210.128906 141.695312 C 209.339844 140.148438 208.941406 138.222656 208.941406 135.914062 C 208.941406 133.5625 209.398438 131.484375 210.304688 129.691406 C 211.214844 127.890625 212.410156 126.378906 213.902344 125.15625 C 215.390625 123.933594 217.113281 122.984375 219.070312 122.320312 C 221.027344 121.648438 223.054688 121.25 225.148438 121.105469 L 225.148438 115.785156 L 229.269531 115.785156 L 229.269531 121.117188 C 231.363281 121.34375 233.332031 121.796875 235.171875 122.460938 C 237.011719 123.132812 238.632812 124.054688 240.027344 125.230469 C 241.425781 126.410156 242.5625 127.875 243.453125 129.625 C 244.335938 131.382812 244.847656 133.457031 244.988281 135.855469 L 235.070312 135.855469 C 235.019531 134.007812 234.441406 132.4375 233.320312 131.148438 C 232.203125 129.855469 230.851562 129.207031 229.273438 129.207031 L 229.273438 141.453125 C 229.832031 141.59375 230.402344 141.730469 230.984375 141.871094 C 231.570312 142.007812 232.183594 142.171875 232.835938 142.351562 C 236.285156 143.277344 238.9375 144.421875 240.800781 145.78125 C 242.660156 147.140625 244.035156 148.5625 244.917969 150.035156 C 245.804688 151.511719 246.328125 152.988281 246.492188 154.464844 C 246.65625 155.945312 246.734375 157.253906 246.734375 158.40625 C 246.734375 159.425781 246.480469 160.703125 245.96875 162.246094 C 245.457031 163.796875 244.535156 165.300781 243.207031 166.78125 C 241.878906 168.257812 240.101562 169.574219 237.863281 170.726562 C 235.628906 171.878906 232.765625 172.570312 229.273438 172.804688 L 229.273438 178.683594 L 225.152344 178.683594 L 225.152344 172.804688 C 219.9375 172.433594 215.863281 170.839844 212.929688 168.027344 C 209.996094 165.214844 208.292969 161.085938 207.832031 155.640625 L 217.683594 155.640625 C 217.628906 158.273438 218.328125 160.34375 219.769531 161.871094 Z M 222.84375 129.554688 C 222.101562 129.785156 221.425781 130.144531 220.820312 130.625 C 220.21875 131.113281 219.742188 131.710938 219.390625 132.421875 C 219.042969 133.140625 218.867188 133.980469 218.867188 134.949219 C 218.867188 136.472656 219.355469 137.644531 220.332031 138.476562 C 221.308594 139.304688 222.917969 139.976562 225.152344 140.484375 L 225.152344 129.207031 C 224.355469 129.207031 223.589844 129.320312 222.84375 129.554688 Z M 231.894531 164.1875 C 232.800781 163.886719 233.617188 163.460938 234.335938 162.910156 C 235.054688 162.359375 235.652344 161.671875 236.117188 160.863281 C 236.582031 160.058594 236.816406 159.101562 236.816406 157.992188 C 236.816406 156.191406 236.246094 154.847656 235.105469 153.945312 C 233.964844 153.046875 232.019531 152.226562 229.273438 151.488281 L 229.273438 164.777344 C 230.109375 164.683594 230.984375 164.488281 231.894531 164.1875 Z M 231.894531 164.1875 " fill-opacity="1" fill-rule="nonzero"/></g><g clip-path="url(#80c74bc9e0)"><path fill="#000000" d="M 287.734375 173.339844 L 279.574219 173.339844 C 278.929688 173.339844 278.40625 172.8125 278.40625 172.164062 L 278.40625 150.996094 L 257.421875 150.996094 L 257.421875 172.164062 C 257.421875 172.8125 256.898438 173.339844 256.253906 173.339844 L 248.09375 173.339844 C 247.449219 173.339844 246.925781 172.8125 246.925781 172.164062 L 246.925781 122.765625 C 246.925781 122.117188 247.449219 121.589844 248.09375 121.589844 L 256.253906 121.589844 C 256.898438 121.589844 257.421875 122.117188 257.421875 122.765625 L 257.421875 141.585938 L 278.40625 141.585938 L 278.40625 122.765625 C 278.40625 122.117188 278.929688 121.589844 279.574219 121.589844 L 287.734375 121.589844 C 288.378906 121.589844 288.902344 122.117188 288.902344 122.765625 L 288.902344 172.164062 C 288.902344 172.8125 288.378906 173.339844 287.734375 173.339844 Z M 287.734375 173.339844 " fill-opacity="1" fill-rule="nonzero"/></g></svg>